<svg width="136" height="25" viewBox="0 0 136 25" fill="none" xmlns="http://www.w3.org/2000/svg">
<path d="M48.01 16.565C47.69 16.795 47.28 16.96 46.78 17.06C46.29 17.16 45.785 17.21 45.265 17.21C44.635 17.21 44.035 17.115 43.465 16.925C42.905 16.725 42.41 16.41 41.98 15.98C41.55 15.54 41.205 14.975 40.945 14.285C40.695 13.585 40.57 12.74 40.57 11.75C40.57 10.72 40.71 9.86 40.99 9.17C41.28 8.47 41.65 7.91 42.1 7.49C42.56 7.06 43.07 6.755 43.63 6.575C44.19 6.385 44.75 6.29 45.31 6.29C45.91 6.29 46.415 6.33 46.825 6.41C47.245 6.49 47.59 6.585 47.86 6.695L47.455 8.435C47.225 8.325 46.95 8.245 46.63 8.195C46.32 8.145 45.94 8.12 45.49 8.12C44.66 8.12 43.99 8.415 43.48 9.005C42.98 9.595 42.73 10.51 42.73 11.75C42.73 12.29 42.79 12.785 42.91 13.235C43.03 13.675 43.21 14.055 43.45 14.375C43.7 14.685 44.005 14.93 44.365 15.11C44.735 15.28 45.16 15.365 45.64 15.365C46.09 15.365 46.47 15.32 46.78 15.23C47.09 15.14 47.36 15.025 47.59 14.885L48.01 16.565ZM54.6919 16.355C54.3919 16.595 53.9819 16.8 53.4619 16.97C52.9519 17.13 52.4069 17.21 51.8269 17.21C50.6169 17.21 49.7319 16.86 49.1719 16.16C48.6119 15.45 48.3319 14.48 48.3319 13.25C48.3319 11.93 48.6469 10.94 49.2769 10.28C49.9069 9.62 50.7919 9.29 51.9319 9.29C52.3119 9.29 52.6819 9.34 53.0419 9.44C53.4019 9.54 53.7219 9.705 54.0019 9.935C54.2819 10.165 54.5069 10.475 54.6769 10.865C54.8469 11.255 54.9319 11.74 54.9319 12.32C54.9319 12.53 54.9169 12.755 54.8869 12.995C54.8669 13.235 54.8319 13.485 54.7819 13.745H50.2819C50.3119 14.375 50.4719 14.85 50.7619 15.17C51.0619 15.49 51.5419 15.65 52.2019 15.65C52.6119 15.65 52.9769 15.59 53.2969 15.47C53.6269 15.34 53.8769 15.21 54.0469 15.08L54.6919 16.355ZM51.9019 10.85C51.3919 10.85 51.0119 11.005 50.7619 11.315C50.5219 11.615 50.3769 12.02 50.3269 12.53H53.1169C53.1569 11.99 53.0719 11.575 52.8619 11.285C52.6619 10.995 52.3419 10.85 51.9019 10.85ZM60.8991 17V12.74C60.8991 12.13 60.8091 11.69 60.6291 11.42C60.4591 11.15 60.1641 11.015 59.7441 11.015C59.3741 11.015 59.0591 11.125 58.7991 11.345C58.5491 11.555 58.3691 11.82 58.2591 12.14V17H56.3091V9.5H57.8541L58.0791 10.49H58.1391C58.3691 10.17 58.6741 9.89 59.0541 9.65C59.4341 9.41 59.9241 9.29 60.5241 9.29C60.8941 9.29 61.2241 9.34 61.5141 9.44C61.8041 9.54 62.0491 9.705 62.2491 9.935C62.4491 10.165 62.5991 10.48 62.6991 10.88C62.7991 11.27 62.8491 11.755 62.8491 12.335V17H60.8991ZM63.7029 9.5H64.7379V8.09L66.6879 7.535V9.5H68.5179V11.15H66.6879V14.03C66.6879 14.55 66.7379 14.925 66.8379 15.155C66.9479 15.375 67.1479 15.485 67.4379 15.485C67.6379 15.485 67.8079 15.465 67.9479 15.425C68.0979 15.385 68.2629 15.325 68.4429 15.245L68.7879 16.745C68.5179 16.875 68.2029 16.985 67.8429 17.075C67.4829 17.165 67.1179 17.21 66.7479 17.21C66.0579 17.21 65.5479 17.035 65.2179 16.685C64.8979 16.325 64.7379 15.74 64.7379 14.93V11.15H63.7029V9.5ZM75.6391 16.355C75.3391 16.595 74.9291 16.8 74.4091 16.97C73.8991 17.13 73.3541 17.21 72.7741 17.21C71.5641 17.21 70.6791 16.86 70.1191 16.16C69.5591 15.45 69.2791 14.48 69.2791 13.25C69.2791 11.93 69.5941 10.94 70.2241 10.28C70.8541 9.62 71.7391 9.29 72.8791 9.29C73.2591 9.29 73.6291 9.34 73.9891 9.44C74.3491 9.54 74.6691 9.705 74.9491 9.935C75.2291 10.165 75.4541 10.475 75.6241 10.865C75.7941 11.255 75.8791 11.74 75.8791 12.32C75.8791 12.53 75.8641 12.755 75.8341 12.995C75.8141 13.235 75.7791 13.485 75.7291 13.745H71.2291C71.2591 14.375 71.4191 14.85 71.7091 15.17C72.0091 15.49 72.4891 15.65 73.1491 15.65C73.5591 15.65 73.9241 15.59 74.2441 15.47C74.5741 15.34 74.8241 15.21 74.9941 15.08L75.6391 16.355ZM72.8491 10.85C72.3391 10.85 71.9591 11.005 71.7091 11.315C71.4691 11.615 71.3241 12.02 71.2741 12.53H74.0641C74.1041 11.99 74.0191 11.575 73.8091 11.285C73.6091 10.995 73.2891 10.85 72.8491 10.85ZM81.3963 11.33C81.0863 11.22 80.8063 11.165 80.5563 11.165C80.2063 11.165 79.9113 11.26 79.6713 11.45C79.4413 11.63 79.2863 11.865 79.2063 12.155V17H77.2563V9.5H78.7713L78.9963 10.49H79.0563C79.2263 10.12 79.4563 9.835 79.7463 9.635C80.0363 9.435 80.3763 9.335 80.7663 9.335C81.0263 9.335 81.3213 9.39 81.6513 9.5L81.3963 11.33ZM89.2051 17H82.5601V6.5H84.6151V15.17H89.2051V17ZM89.3329 13.25C89.3329 11.98 89.6429 11.005 90.2629 10.325C90.8829 9.635 91.7529 9.29 92.8729 9.29C93.4729 9.29 93.9929 9.385 94.4329 9.575C94.8729 9.765 95.2379 10.035 95.5279 10.385C95.8179 10.725 96.0329 11.14 96.1729 11.63C96.3229 12.12 96.3979 12.66 96.3979 13.25C96.3979 14.52 96.0879 15.5 95.4679 16.19C94.8579 16.87 93.9929 17.21 92.8729 17.21C92.2729 17.21 91.7529 17.115 91.3129 16.925C90.8729 16.735 90.5029 16.47 90.2029 16.13C89.9129 15.78 89.6929 15.36 89.5429 14.87C89.4029 14.38 89.3329 13.84 89.3329 13.25ZM91.3429 13.25C91.3429 13.58 91.3729 13.885 91.4329 14.165C91.4929 14.445 91.5829 14.69 91.7029 14.9C91.8229 15.11 91.9779 15.275 92.1679 15.395C92.3679 15.505 92.6029 15.56 92.8729 15.56C93.3829 15.56 93.7629 15.375 94.0129 15.005C94.2629 14.635 94.3879 14.05 94.3879 13.25C94.3879 12.56 94.2729 12.005 94.0429 11.585C93.8129 11.155 93.4229 10.94 92.8729 10.94C92.3929 10.94 92.0179 11.12 91.7479 11.48C91.4779 11.84 91.3429 12.43 91.3429 13.25ZM104.095 17C104.095 18.09 103.8 18.89 103.21 19.4C102.62 19.92 101.795 20.18 100.735 20.18C100.015 20.18 99.4445 20.13 99.0245 20.03C98.6145 19.93 98.3045 19.825 98.0945 19.715L98.4995 18.17C98.7295 18.26 98.9945 18.35 99.2945 18.44C99.6045 18.53 99.9845 18.575 100.435 18.575C101.115 18.575 101.575 18.425 101.815 18.125C102.065 17.835 102.19 17.425 102.19 16.895V16.415H102.13C101.78 16.885 101.16 17.12 100.27 17.12C99.2995 17.12 98.5745 16.82 98.0945 16.22C97.6245 15.62 97.3895 14.68 97.3895 13.4C97.3895 12.06 97.7095 11.045 98.3495 10.355C98.9895 9.665 99.9195 9.32 101.14 9.32C101.78 9.32 102.35 9.365 102.85 9.455C103.36 9.545 103.775 9.65 104.095 9.77V17ZM100.795 15.56C101.175 15.56 101.465 15.475 101.665 15.305C101.875 15.135 102.035 14.88 102.145 14.54V11.165C101.835 11.035 101.45 10.97 100.99 10.97C100.49 10.97 100.1 11.16 99.8195 11.54C99.5395 11.91 99.3995 12.505 99.3995 13.325C99.3995 14.055 99.5195 14.61 99.7595 14.99C99.9995 15.37 100.345 15.56 100.795 15.56ZM105.956 9.5H107.906V17H105.956V9.5ZM105.671 7.385C105.671 7.095 105.776 6.85 105.986 6.65C106.206 6.44 106.506 6.335 106.886 6.335C107.266 6.335 107.571 6.44 107.801 6.65C108.041 6.85 108.161 7.095 108.161 7.385C108.161 7.675 108.041 7.92 107.801 8.12C107.571 8.31 107.266 8.405 106.886 8.405C106.506 8.405 106.206 8.31 105.986 8.12C105.776 7.92 105.671 7.675 105.671 7.385ZM112.925 14.93C112.925 14.73 112.84 14.57 112.67 14.45C112.5 14.33 112.29 14.22 112.04 14.12C111.79 14.02 111.515 13.92 111.215 13.82C110.915 13.71 110.64 13.565 110.39 13.385C110.14 13.195 109.93 12.96 109.76 12.68C109.59 12.39 109.505 12.02 109.505 11.57C109.505 10.83 109.725 10.265 110.165 9.875C110.605 9.485 111.24 9.29 112.07 9.29C112.64 9.29 113.155 9.35 113.615 9.47C114.075 9.59 114.435 9.725 114.695 9.875L114.26 11.285C114.03 11.195 113.74 11.1 113.39 11C113.04 10.9 112.685 10.85 112.325 10.85C111.745 10.85 111.455 11.075 111.455 11.525C111.455 11.705 111.54 11.85 111.71 11.96C111.88 12.07 112.09 12.175 112.34 12.275C112.59 12.365 112.865 12.465 113.165 12.575C113.465 12.685 113.74 12.83 113.99 13.01C114.24 13.18 114.45 13.405 114.62 13.685C114.79 13.965 114.875 14.325 114.875 14.765C114.875 15.525 114.63 16.125 114.14 16.565C113.66 16.995 112.935 17.21 111.965 17.21C111.435 17.21 110.935 17.14 110.465 17C110.005 16.87 109.63 16.715 109.34 16.535L109.88 15.08C110.11 15.21 110.415 15.34 110.795 15.47C111.175 15.59 111.565 15.65 111.965 15.65C112.255 15.65 112.485 15.595 112.655 15.485C112.835 15.375 112.925 15.19 112.925 14.93ZM115.368 9.5H116.403V8.09L118.353 7.535V9.5H120.183V11.15H118.353V14.03C118.353 14.55 118.403 14.925 118.503 15.155C118.613 15.375 118.813 15.485 119.103 15.485C119.303 15.485 119.473 15.465 119.613 15.425C119.763 15.385 119.928 15.325 120.108 15.245L120.453 16.745C120.183 16.875 119.868 16.985 119.508 17.075C119.148 17.165 118.783 17.21 118.413 17.21C117.723 17.21 117.213 17.035 116.883 16.685C116.563 16.325 116.403 15.74 116.403 14.93V11.15H115.368V9.5ZM121.542 9.5H123.492V17H121.542V9.5ZM121.257 7.385C121.257 7.095 121.362 6.85 121.572 6.65C121.792 6.44 122.092 6.335 122.472 6.335C122.852 6.335 123.157 6.44 123.387 6.65C123.627 6.85 123.747 7.095 123.747 7.385C123.747 7.675 123.627 7.92 123.387 8.12C123.157 8.31 122.852 8.405 122.472 8.405C122.092 8.405 121.792 8.31 121.572 8.12C121.362 7.92 121.257 7.675 121.257 7.385ZM130.716 16.535C130.416 16.755 130.051 16.92 129.621 17.03C129.201 17.15 128.766 17.21 128.316 17.21C127.716 17.21 127.206 17.115 126.786 16.925C126.376 16.735 126.041 16.47 125.781 16.13C125.521 15.78 125.331 15.36 125.211 14.87C125.101 14.38 125.046 13.84 125.046 13.25C125.046 11.98 125.331 11.005 125.901 10.325C126.471 9.635 127.301 9.29 128.391 9.29C128.941 9.29 129.381 9.335 129.711 9.425C130.051 9.515 130.356 9.63 130.626 9.77L130.161 11.36C129.931 11.25 129.701 11.165 129.471 11.105C129.251 11.045 128.996 11.015 128.706 11.015C128.166 11.015 127.756 11.195 127.476 11.555C127.196 11.905 127.056 12.47 127.056 13.25C127.056 13.57 127.091 13.865 127.161 14.135C127.231 14.405 127.336 14.64 127.476 14.84C127.616 15.04 127.796 15.2 128.016 15.32C128.246 15.43 128.511 15.485 128.811 15.485C129.141 15.485 129.421 15.445 129.651 15.365C129.881 15.275 130.086 15.17 130.266 15.05L130.716 16.535Z" fill="white"/>
<g clip-path="url(#clip0)">
<path d="M12.4999 8.036C11.617 8.036 10.754 8.29781 10.0199 8.78832C9.28578 9.27883 8.71361 9.97601 8.37574 10.7917C8.03787 11.6074 7.94947 12.505 8.12172 13.3709C8.29396 14.2368 8.71912 15.0322 9.34342 15.6565C9.96772 16.2808 10.7631 16.706 11.6291 16.8782C12.495 17.0505 13.3926 16.9621 14.2082 16.6242C15.0239 16.2863 15.7211 15.7142 16.2116 14.9801C16.7021 14.246 16.9639 13.3829 16.9639 12.5C16.9605 11.3171 16.4891 10.1837 15.6527 9.34726C14.8163 8.51084 13.6828 8.03943 12.4999 8.036V8.036ZM23.1549 11.31C22.8789 8.89506 21.7929 6.64485 20.0741 4.9262C18.3552 3.20755 16.1049 2.12182 13.6899 1.846V0H11.3099V1.845C8.89498 2.12082 6.64465 3.20655 4.92581 4.9252C3.20698 6.64385 2.12101 8.89406 1.84494 11.309H-6.10352e-05V13.69H1.84494C2.1208 16.1051 3.20668 18.3556 4.92553 20.0744C6.64438 21.7933 8.89482 22.8791 11.3099 23.155V25H13.6899V23.155C16.1051 22.8791 18.3555 21.7933 20.0744 20.0744C21.7932 18.3556 22.8791 16.1051 23.1549 13.69H25V11.31H23.1549ZM12.4999 20.833C10.8518 20.833 9.24073 20.3443 7.87038 19.4286C6.50002 18.513 5.43196 17.2116 4.80125 15.6889C4.17055 14.1662 4.00553 12.4908 4.32706 10.8743C4.64859 9.25787 5.44223 7.77307 6.60762 6.60768C7.77301 5.44229 9.25781 4.64865 10.8743 4.32712C12.4907 4.00559 14.1662 4.17061 15.6888 4.80131C17.2115 5.43202 18.5129 6.50008 19.4286 7.87043C20.3442 9.24079 20.8329 10.8519 20.8329 12.5C20.8264 14.708 19.9463 16.8237 18.385 18.385C16.8237 19.9464 14.708 20.8264 12.4999 20.833Z" fill="white"/>
</g>
<defs>
<clipPath id="clip0">
<rect width="25" height="25" fill="white"/>
</clipPath>
</defs>
</svg>
